<svg width="36" height="26" viewBox="0 0 36 26" fill="none" xmlns="http://www.w3.org/2000/svg">
<rect width="36" height="25.7143" rx="2" fill="white"/>
<mask id="mask0_389_189" style="mask-type:luminance" maskUnits="userSpaceOnUse" x="0" y="0" width="36" height="26">
<rect width="36" height="25.7143" rx="2" fill="white"/>
</mask>
<g mask="url(#mask0_389_189)">
<rect width="36" height="25.7143" fill="#30C6E0"/>
<path fill-rule="evenodd" clip-rule="evenodd" d="M17.9983 18.0001C20.8386 18.0001 23.1412 15.6975 23.1412 12.8572C23.1412 10.0169 20.8386 7.71436 17.9983 7.71436C15.158 7.71436 12.8555 10.0169 12.8555 12.8572C12.8555 15.6975 15.158 18.0001 17.9983 18.0001Z" fill="#FFCD4B"/>
<path fill-rule="evenodd" clip-rule="evenodd" d="M15.9008 22.0494L17.9989 18.9176L20.0969 22.0494L20.6284 18.3174L23.8775 20.2288L22.7371 16.6358L26.4937 16.9481L23.9073 14.2058L27.4275 12.8572L23.9073 11.5087L26.4937 8.76631L22.7371 9.07864L23.8775 5.48566L20.6284 7.39702L20.0969 3.66504L17.9989 6.79686L15.9008 3.66504L15.3694 7.39702L12.1203 5.48566L13.2607 9.07864L9.50403 8.76631L12.0905 11.5087L8.57031 12.8572L12.0905 14.2058L9.50403 16.9481L13.2607 16.6358L12.1203 20.2288L15.3694 18.3174L15.9008 22.0494ZM23.9989 12.8572C23.9989 16.1709 21.3126 18.8572 17.9989 18.8572C14.6852 18.8572 11.9989 16.1709 11.9989 12.8572C11.9989 9.54351 14.6852 6.85722 17.9989 6.85722C21.3126 6.85722 23.9989 9.54351 23.9989 12.8572Z" fill="#FFCD4B"/>
<path fill-rule="evenodd" clip-rule="evenodd" d="M1.71484 2.04769C1.71484 1.86359 1.86408 1.71436 2.04818 1.71436H3.0958C3.27989 1.71436 3.42913 1.86359 3.42913 2.04769V3.09531C3.42913 3.2794 3.27989 3.42864 3.0958 3.42864H2.04818C1.86408 3.42864 1.71484 3.2794 1.71484 3.09531V2.04769ZM1.71484 5.47626C1.71484 5.29217 1.86408 5.14293 2.04818 5.14293H3.0958C3.27989 5.14293 3.42913 5.29217 3.42913 5.47626V6.52388C3.42913 6.70797 3.27989 6.85721 3.0958 6.85721H2.04818C1.86408 6.85721 1.71484 6.70797 1.71484 6.52388V5.47626ZM2.04818 8.5715C1.86408 8.5715 1.71484 8.72074 1.71484 8.90483V9.95245C1.71484 10.1365 1.86408 10.2858 2.04818 10.2858H3.0958C3.27989 10.2858 3.42913 10.1365 3.42913 9.95245V8.90483C3.42913 8.72074 3.27989 8.5715 3.0958 8.5715H2.04818ZM1.71484 12.3334C1.71484 12.1493 1.86408 12.0001 2.04818 12.0001H3.0958C3.27989 12.0001 3.42913 12.1493 3.42913 12.3334V13.381C3.42913 13.5651 3.27989 13.7144 3.0958 13.7144H2.04818C1.86408 13.7144 1.71484 13.5651 1.71484 13.381V12.3334ZM2.04818 15.4286C1.86408 15.4286 1.71484 15.5779 1.71484 15.762V16.8096C1.71484 16.9937 1.86408 17.1429 2.04818 17.1429H3.0958C3.27989 17.1429 3.42913 16.9937 3.42913 16.8096V15.762C3.42913 15.5779 3.27989 15.4286 3.0958 15.4286H2.04818ZM1.71484 19.1905C1.71484 19.0065 1.86408 18.8572 2.04818 18.8572H3.0958C3.27989 18.8572 3.42913 19.0065 3.42913 19.1905V20.2382C3.42913 20.4223 3.27989 20.5715 3.0958 20.5715H2.04818C1.86408 20.5715 1.71484 20.4223 1.71484 20.2382V19.1905ZM2.04818 22.2858C1.86408 22.2858 1.71484 22.435 1.71484 22.6191V23.6667C1.71484 23.8508 1.86408 24.0001 2.04818 24.0001H3.0958C3.27989 24.0001 3.42913 23.8508 3.42913 23.6667V22.6191C3.42913 22.435 3.27989 22.2858 3.0958 22.2858H2.04818ZM3.42913 20.9048C3.42913 20.7207 3.57837 20.5715 3.76246 20.5715H4.81008C4.99418 20.5715 5.14342 20.7207 5.14342 20.9048V21.9525C5.14342 22.1365 4.99418 22.2858 4.81008 22.2858H3.76246C3.57837 22.2858 3.42913 22.1365 3.42913 21.9525V20.9048ZM3.76246 17.1429C3.57837 17.1429 3.42913 17.2922 3.42913 17.4763V18.5239C3.42913 18.708 3.57837 18.8572 3.76246 18.8572H4.81008C4.99418 18.8572 5.14342 18.708 5.14342 18.5239V17.4763C5.14342 17.2922 4.99418 17.1429 4.81008 17.1429H3.76246ZM3.42913 14.0477C3.42913 13.8636 3.57837 13.7144 3.76246 13.7144H4.81008C4.99418 13.7144 5.14342 13.8636 5.14342 14.0477V15.0953C5.14342 15.2794 4.99418 15.4286 4.81008 15.4286H3.76246C3.57837 15.4286 3.42913 15.2794 3.42913 15.0953V14.0477ZM3.76246 10.2858C3.57837 10.2858 3.42913 10.435 3.42913 10.6191V11.6667C3.42913 11.8508 3.57837 12.0001 3.76246 12.0001H4.81008C4.99418 12.0001 5.14342 11.8508 5.14342 11.6667V10.6191C5.14342 10.435 4.99418 10.2858 4.81008 10.2858H3.76246ZM3.42913 7.19055C3.42913 7.00645 3.57837 6.85721 3.76246 6.85721H4.81008C4.99418 6.85721 5.14342 7.00645 5.14342 7.19055V8.23817C5.14342 8.42226 4.99418 8.5715 4.81008 8.5715H3.76246C3.57837 8.5715 3.42913 8.42226 3.42913 8.23816V7.19055ZM3.76246 3.42864C3.57837 3.42864 3.42913 3.57788 3.42913 3.76197V4.80959C3.42913 4.99369 3.57837 5.14293 3.76246 5.14293H4.81008C4.99418 5.14293 5.14342 4.99369 5.14342 4.80959V3.76197C5.14342 3.57788 4.99418 3.42864 4.81008 3.42864H3.76246Z" fill="#FFCD4B"/>
</g>
</svg>
